<svg width="25" height="27" viewBox="0 0 25 27" fill="none" xmlns="http://www.w3.org/2000/svg">
<path d="M1 1.65039H3.55556L4.06667 4.31706M6.11111 14.9837H18.8889L24 4.31706H4.06667M6.11111 14.9837L4.06667 4.31706M6.11111 14.9837L3.1813 18.0409C2.37635 18.8809 2.94645 20.3171 4.08483 20.3171H18.8889M18.8889 20.3171C17.4775 20.3171 16.3333 21.511 16.3333 22.9837C16.3333 24.4565 17.4775 25.6504 18.8889 25.6504C20.3003 25.6504 21.4444 24.4565 21.4444 22.9837C21.4444 21.511 20.3003 20.3171 18.8889 20.3171ZM8.66667 22.9837C8.66667 24.4565 7.52251 25.6504 6.11111 25.6504C4.69972 25.6504 3.55556 24.4565 3.55556 22.9837C3.55556 21.511 4.69972 20.3171 6.11111 20.3171C7.52251 20.3171 8.66667 21.511 8.66667 22.9837Z" stroke="#0D0842" stroke-width="1.7" stroke-linecap="round" stroke-linejoin="round"/>
</svg>
