<svg width="35" height="134" viewBox="0 0 35 134" fill="none" xmlns="http://www.w3.org/2000/svg">
<g clip-path="url(#clip0_1015_1004)">
<mask id="mask0_1015_1004" style="mask-type:luminance" maskUnits="userSpaceOnUse" x="0" y="0" width="35" height="134">
<path d="M34.5 0H0.5V134H34.5V0Z" fill="white"/>
</mask>
<g mask="url(#mask0_1015_1004)">
<path d="M32.4995 130.333C31.579 130.333 30.8328 131.079 30.8328 132C30.8328 132.92 31.579 133.667 32.4995 133.667C33.42 133.667 34.1662 132.92 34.1662 132C34.1662 131.079 33.42 130.333 32.4995 130.333Z" fill="#00B1E9"/>
<path d="M32.4995 115.666C31.579 115.666 30.8328 116.412 30.8328 117.333C30.8328 118.253 31.579 119 32.4995 119C33.42 119 34.1662 118.253 34.1662 117.333C34.1662 116.412 33.42 115.666 32.4995 115.666Z" fill="#00B1E9"/>
<path d="M32.4995 101C31.579 101 30.8328 101.746 30.8328 102.667C30.8328 103.587 31.579 104.334 32.4995 104.334C33.42 104.334 34.1662 103.587 34.1662 102.667C34.1662 101.746 33.42 101 32.4995 101Z" fill="#00B1E9"/>
<path d="M32.4995 86.3333C31.579 86.3333 30.8328 87.0795 30.8328 88C30.8328 88.9204 31.579 89.6666 32.4995 89.6666C33.42 89.6666 34.1662 88.9204 34.1662 88C34.1662 87.0795 33.42 86.3333 32.4995 86.3333Z" fill="#00B1E9"/>
<path d="M32.4995 71.6667C31.579 71.6667 30.8328 72.4129 30.8328 73.3333C30.8328 74.2538 31.579 75 32.4995 75C33.42 75 34.1662 74.2538 34.1662 73.3333C34.1662 72.4129 33.42 71.6667 32.4995 71.6667Z" fill="#00B1E9"/>
<path d="M32.4995 43.3333C31.579 43.3333 30.8328 44.0795 30.8328 45C30.8328 45.9204 31.579 46.6665 32.4995 46.6665C33.42 46.6665 34.1662 45.9204 34.1662 45C34.1662 44.0795 33.42 43.3333 32.4995 43.3333Z" fill="#00B1E9"/>
<path d="M32.4995 14.3333C31.579 14.3333 30.8328 15.0795 30.8328 16C30.8328 16.9204 31.579 17.6666 32.4995 17.6666C33.42 17.6666 34.1662 16.9204 34.1662 16C34.1662 15.0795 33.42 14.3333 32.4995 14.3333Z" fill="#00B1E9"/>
<path d="M32.4995 57.3333C31.579 57.3333 30.8328 58.0795 30.8328 59C30.8328 59.9204 31.579 60.6665 32.4995 60.6665C33.42 60.6665 34.1662 59.9204 34.1662 59C34.1662 58.0795 33.42 57.3333 32.4995 57.3333Z" fill="#00B1E9"/>
<path d="M32.4995 28.9998C31.579 28.9998 30.8328 29.746 30.8328 30.6665C30.8328 31.587 31.579 32.3332 32.4995 32.3332C33.42 32.3332 34.1662 31.587 34.1662 30.6665C34.1662 29.746 33.42 28.9998 32.4995 28.9998Z" fill="#00B1E9"/>
<path d="M32.4995 0C31.579 0 30.8328 0.746194 30.8328 1.66667C30.8328 2.58715 31.579 3.33334 32.4995 3.33334C33.42 3.33334 34.1662 2.58715 34.1662 1.66667C34.1662 0.746194 33.42 0 32.4995 0Z" fill="#00B1E9"/>
<path d="M17.8334 130.333C16.9129 130.333 16.1667 131.079 16.1667 132C16.1667 132.92 16.9129 133.667 17.8334 133.667C18.7539 133.667 19.5001 132.92 19.5001 132C19.5001 131.079 18.7539 130.333 17.8334 130.333Z" fill="#00B1E9"/>
<path d="M17.8334 115.666C16.9129 115.666 16.1667 116.412 16.1667 117.333C16.1667 118.253 16.9129 119 17.8334 119C18.7539 119 19.5001 118.253 19.5001 117.333C19.5001 116.412 18.7539 115.666 17.8334 115.666Z" fill="#00B1E9"/>
<path d="M17.8334 101C16.9129 101 16.1667 101.746 16.1667 102.667C16.1667 103.587 16.9129 104.334 17.8334 104.334C18.7539 104.334 19.5001 103.587 19.5001 102.667C19.5001 101.746 18.7539 101 17.8334 101Z" fill="#00B1E9"/>
<path d="M17.8334 86.3333C16.9129 86.3333 16.1667 87.0795 16.1667 88C16.1667 88.9204 16.9129 89.6666 17.8334 89.6666C18.7539 89.6666 19.5001 88.9204 19.5001 88C19.5001 87.0795 18.7539 86.3333 17.8334 86.3333Z" fill="#00B1E9"/>
<path d="M17.8334 71.6667C16.9129 71.6667 16.1667 72.4129 16.1667 73.3333C16.1667 74.2538 16.9129 75 17.8334 75C18.7539 75 19.5001 74.2538 19.5001 73.3333C19.5001 72.4129 18.7539 71.6667 17.8334 71.6667Z" fill="#00B1E9"/>
<path d="M17.8334 43.3333C16.9129 43.3333 16.1667 44.0795 16.1667 45C16.1667 45.9204 16.9129 46.6665 17.8334 46.6665C18.7539 46.6665 19.5001 45.9204 19.5001 45C19.5001 44.0795 18.7539 43.3333 17.8334 43.3333Z" fill="#00B1E9"/>
<path d="M17.8334 14.3333C16.9129 14.3333 16.1667 15.0795 16.1667 16C16.1667 16.9204 16.9129 17.6666 17.8334 17.6666C18.7539 17.6666 19.5001 16.9204 19.5001 16C19.5001 15.0795 18.7539 14.3333 17.8334 14.3333Z" fill="#00B1E9"/>
<path d="M17.8334 57.3333C16.9129 57.3333 16.1667 58.0795 16.1667 59C16.1667 59.9204 16.9129 60.6665 17.8334 60.6665C18.7539 60.6665 19.5001 59.9204 19.5001 59C19.5001 58.0795 18.7539 57.3333 17.8334 57.3333Z" fill="#00B1E9"/>
<path d="M17.8334 28.9998C16.9129 28.9998 16.1667 29.746 16.1667 30.6665C16.1667 31.587 16.9129 32.3332 17.8334 32.3332C18.7539 32.3332 19.5001 31.587 19.5001 30.6665C19.5001 29.746 18.7539 28.9998 17.8334 28.9998Z" fill="#00B1E9"/>
<path d="M17.8334 0C16.9129 0 16.1667 0.746194 16.1667 1.66667C16.1667 2.58715 16.9129 3.33334 17.8334 3.33334C18.7539 3.33334 19.5001 2.58715 19.5001 1.66667C19.5001 0.746194 18.7539 0 17.8334 0Z" fill="#00B1E9"/>
<path d="M3.16545 130.333C2.24497 130.333 1.49878 131.079 1.49878 132C1.49878 132.92 2.24497 133.667 3.16545 133.667C4.08593 133.667 4.83212 132.92 4.83212 132C4.83212 131.079 4.08593 130.333 3.16545 130.333Z" fill="#00B1E9"/>
<path d="M3.16545 115.666C2.24497 115.666 1.49878 116.412 1.49878 117.333C1.49878 118.253 2.24497 119 3.16545 119C4.08593 119 4.83212 118.253 4.83212 117.333C4.83212 116.412 4.08593 115.666 3.16545 115.666Z" fill="#00B1E9"/>
<path d="M3.16545 101C2.24497 101 1.49878 101.746 1.49878 102.667C1.49878 103.587 2.24497 104.334 3.16545 104.334C4.08593 104.334 4.83212 103.587 4.83212 102.667C4.83212 101.746 4.08593 101 3.16545 101Z" fill="#00B1E9"/>
<path d="M3.16545 86.3333C2.24497 86.3333 1.49878 87.0795 1.49878 88C1.49878 88.9204 2.24497 89.6666 3.16545 89.6666C4.08593 89.6666 4.83212 88.9204 4.83212 88C4.83212 87.0795 4.08593 86.3333 3.16545 86.3333Z" fill="#00B1E9"/>
<path d="M3.16545 71.6667C2.24497 71.6667 1.49878 72.4129 1.49878 73.3333C1.49878 74.2538 2.24497 75 3.16545 75C4.08593 75 4.83212 74.2538 4.83212 73.3333C4.83212 72.4129 4.08593 71.6667 3.16545 71.6667Z" fill="#00B1E9"/>
<path d="M3.16545 43.3333C2.24497 43.3333 1.49878 44.0795 1.49878 45C1.49878 45.9204 2.24497 46.6665 3.16545 46.6665C4.08593 46.6665 4.83212 45.9204 4.83212 45C4.83212 44.0795 4.08593 43.3333 3.16545 43.3333Z" fill="#00B1E9"/>
<path d="M3.16545 14.3333C2.24497 14.3333 1.49878 15.0795 1.49878 16C1.49878 16.9204 2.24497 17.6666 3.16545 17.6666C4.08593 17.6666 4.83212 16.9204 4.83212 16C4.83212 15.0795 4.08593 14.3333 3.16545 14.3333Z" fill="#00B1E9"/>
<path d="M3.16545 57.3333C2.24497 57.3333 1.49878 58.0795 1.49878 59C1.49878 59.9204 2.24497 60.6665 3.16545 60.6665C4.08593 60.6665 4.83212 59.9204 4.83212 59C4.83212 58.0795 4.08593 57.3333 3.16545 57.3333Z" fill="#00B1E9"/>
<path d="M3.16545 28.9998C2.24497 28.9998 1.49878 29.746 1.49878 30.6665C1.49878 31.587 2.24497 32.3332 3.16545 32.3332C4.08593 32.3332 4.83212 31.587 4.83212 30.6665C4.83212 29.746 4.08593 28.9998 3.16545 28.9998Z" fill="#00B1E9"/>
<path d="M3.16545 0C2.24497 0 1.49878 0.746194 1.49878 1.66667C1.49878 2.58715 2.24497 3.33334 3.16545 3.33334C4.08593 3.33334 4.83212 2.58715 4.83212 1.66667C4.83212 0.746194 4.08593 0 3.16545 0Z" fill="#00B1E9"/>
</g>
</g>
<defs>
<clipPath id="clip0_1015_1004">
<rect width="34" height="134" fill="white" transform="translate(0.5)"/>
</clipPath>
</defs>
</svg>
