<svg width="108" height="134" viewBox="0 0 108 134" fill="none" xmlns="http://www.w3.org/2000/svg">
<g clip-path="url(#clip0_1015_919)">
<mask id="mask0_1015_919" style="mask-type:luminance" maskUnits="userSpaceOnUse" x="0" y="0" width="108" height="134">
<path d="M107.5 0H0.5V134H107.5V0Z" fill="white"/>
</mask>
<g mask="url(#mask0_1015_919)">
<path d="M105.499 130.333C104.579 130.333 103.832 131.079 103.832 132C103.832 132.92 104.579 133.667 105.499 133.667C106.419 133.667 107.166 132.92 107.166 132C107.166 131.079 106.419 130.333 105.499 130.333Z" fill="#00B1E9"/>
<path d="M105.499 115.666C104.579 115.666 103.832 116.412 103.832 117.333C103.832 118.253 104.579 119 105.499 119C106.419 119 107.166 118.253 107.166 117.333C107.166 116.412 106.419 115.666 105.499 115.666Z" fill="#00B1E9"/>
<path d="M105.499 101C104.579 101 103.832 101.746 103.832 102.667C103.832 103.587 104.579 104.334 105.499 104.334C106.419 104.334 107.166 103.587 107.166 102.667C107.166 101.746 106.419 101 105.499 101Z" fill="#00B1E9"/>
<path d="M105.499 86.3333C104.579 86.3333 103.832 87.0795 103.832 88C103.832 88.9204 104.579 89.6666 105.499 89.6666C106.419 89.6666 107.166 88.9204 107.166 88C107.166 87.0795 106.419 86.3333 105.499 86.3333Z" fill="#00B1E9"/>
<path d="M105.499 71.6667C104.579 71.6667 103.832 72.4129 103.832 73.3333C103.832 74.2538 104.579 75 105.499 75C106.419 75 107.166 74.2538 107.166 73.3333C107.166 72.4129 106.419 71.6667 105.499 71.6667Z" fill="#00B1E9"/>
<path d="M105.499 43.3333C104.579 43.3333 103.832 44.0795 103.832 45C103.832 45.9204 104.579 46.6665 105.499 46.6665C106.419 46.6665 107.166 45.9204 107.166 45C107.166 44.0795 106.419 43.3333 105.499 43.3333Z" fill="#00B1E9"/>
<path d="M105.499 14.3333C104.579 14.3333 103.832 15.0795 103.832 16C103.832 16.9204 104.579 17.6666 105.499 17.6666C106.419 17.6666 107.166 16.9204 107.166 16C107.166 15.0795 106.419 14.3333 105.499 14.3333Z" fill="#00B1E9"/>
<path d="M105.499 57.3333C104.579 57.3333 103.832 58.0795 103.832 59C103.832 59.9204 104.579 60.6665 105.499 60.6665C106.419 60.6665 107.166 59.9204 107.166 59C107.166 58.0795 106.419 57.3333 105.499 57.3333Z" fill="#00B1E9"/>
<path d="M105.499 28.9998C104.579 28.9998 103.832 29.746 103.832 30.6665C103.832 31.587 104.579 32.3332 105.499 32.3332C106.419 32.3332 107.166 31.587 107.166 30.6665C107.166 29.746 106.419 28.9998 105.499 28.9998Z" fill="#00B1E9"/>
<path d="M105.499 0C104.579 0 103.832 0.746194 103.832 1.66667C103.832 2.58715 104.579 3.33334 105.499 3.33334C106.419 3.33334 107.166 2.58715 107.166 1.66667C107.166 0.746194 106.419 0 105.499 0Z" fill="#00B1E9"/>
<path d="M90.8333 130.333C89.9129 130.333 89.1667 131.079 89.1667 132C89.1667 132.92 89.9129 133.667 90.8333 133.667C91.7538 133.667 92.5 132.92 92.5 132C92.5 131.079 91.7538 130.333 90.8333 130.333Z" fill="#00B1E9"/>
<path d="M90.8333 115.666C89.9129 115.666 89.1667 116.412 89.1667 117.333C89.1667 118.253 89.9129 119 90.8333 119C91.7538 119 92.5 118.253 92.5 117.333C92.5 116.412 91.7538 115.666 90.8333 115.666Z" fill="#00B1E9"/>
<path d="M90.8333 101C89.9129 101 89.1667 101.746 89.1667 102.667C89.1667 103.587 89.9129 104.334 90.8333 104.334C91.7538 104.334 92.5 103.587 92.5 102.667C92.5 101.746 91.7538 101 90.8333 101Z" fill="#00B1E9"/>
<path d="M90.8333 86.3333C89.9129 86.3333 89.1667 87.0795 89.1667 88C89.1667 88.9204 89.9129 89.6666 90.8333 89.6666C91.7538 89.6666 92.5 88.9204 92.5 88C92.5 87.0795 91.7538 86.3333 90.8333 86.3333Z" fill="#00B1E9"/>
<path d="M90.8333 71.6667C89.9129 71.6667 89.1667 72.4129 89.1667 73.3333C89.1667 74.2538 89.9129 75 90.8333 75C91.7538 75 92.5 74.2538 92.5 73.3333C92.5 72.4129 91.7538 71.6667 90.8333 71.6667Z" fill="#00B1E9"/>
<path d="M90.8333 43.3333C89.9129 43.3333 89.1667 44.0795 89.1667 45C89.1667 45.9204 89.9129 46.6665 90.8333 46.6665C91.7538 46.6665 92.5 45.9204 92.5 45C92.5 44.0795 91.7538 43.3333 90.8333 43.3333Z" fill="#00B1E9"/>
<path d="M90.8333 14.3333C89.9129 14.3333 89.1667 15.0795 89.1667 16C89.1667 16.9204 89.9129 17.6666 90.8333 17.6666C91.7538 17.6666 92.5 16.9204 92.5 16C92.5 15.0795 91.7538 14.3333 90.8333 14.3333Z" fill="#00B1E9"/>
<path d="M90.8333 57.3333C89.9129 57.3333 89.1667 58.0795 89.1667 59C89.1667 59.9204 89.9129 60.6665 90.8333 60.6665C91.7538 60.6665 92.5 59.9204 92.5 59C92.5 58.0795 91.7538 57.3333 90.8333 57.3333Z" fill="#00B1E9"/>
<path d="M90.8333 28.9998C89.9129 28.9998 89.1667 29.746 89.1667 30.6665C89.1667 31.587 89.9129 32.3332 90.8333 32.3332C91.7538 32.3332 92.5 31.587 92.5 30.6665C92.5 29.746 91.7538 28.9998 90.8333 28.9998Z" fill="#00B1E9"/>
<path d="M90.8333 0C89.9129 0 89.1667 0.746194 89.1667 1.66667C89.1667 2.58715 89.9129 3.33334 90.8333 3.33334C91.7538 3.33334 92.5 2.58715 92.5 1.66667C92.5 0.746194 91.7538 0 90.8333 0Z" fill="#00B1E9"/>
<path d="M76.1654 130.333C75.245 130.333 74.4988 131.079 74.4988 132C74.4988 132.92 75.245 133.667 76.1654 133.667C77.0859 133.667 77.8321 132.92 77.8321 132C77.8321 131.079 77.0859 130.333 76.1654 130.333Z" fill="#00B1E9"/>
<path d="M32.4995 130.333C31.579 130.333 30.8328 131.079 30.8328 132C30.8328 132.92 31.579 133.667 32.4995 133.667C33.42 133.667 34.1662 132.92 34.1662 132C34.1662 131.079 33.42 130.333 32.4995 130.333Z" fill="#00B1E9"/>
<path d="M76.1654 115.666C75.245 115.666 74.4988 116.412 74.4988 117.333C74.4988 118.253 75.245 119 76.1654 119C77.0859 119 77.8321 118.253 77.8321 117.333C77.8321 116.412 77.0859 115.666 76.1654 115.666Z" fill="#00B1E9"/>
<path d="M32.4995 115.666C31.579 115.666 30.8328 116.412 30.8328 117.333C30.8328 118.253 31.579 119 32.4995 119C33.42 119 34.1662 118.253 34.1662 117.333C34.1662 116.412 33.42 115.666 32.4995 115.666Z" fill="#00B1E9"/>
<path d="M76.1654 101C75.245 101 74.4988 101.746 74.4988 102.667C74.4988 103.587 75.245 104.334 76.1654 104.334C77.0859 104.334 77.8321 103.587 77.8321 102.667C77.8321 101.746 77.0859 101 76.1654 101Z" fill="#00B1E9"/>
<path d="M32.4995 101C31.579 101 30.8328 101.746 30.8328 102.667C30.8328 103.587 31.579 104.334 32.4995 104.334C33.42 104.334 34.1662 103.587 34.1662 102.667C34.1662 101.746 33.42 101 32.4995 101Z" fill="#00B1E9"/>
<path d="M76.1654 86.3333C75.245 86.3333 74.4988 87.0795 74.4988 88C74.4988 88.9204 75.245 89.6666 76.1654 89.6666C77.0859 89.6666 77.8321 88.9204 77.8321 88C77.8321 87.0795 77.0859 86.3333 76.1654 86.3333Z" fill="#00B1E9"/>
<path d="M32.4995 86.3333C31.579 86.3333 30.8328 87.0795 30.8328 88C30.8328 88.9204 31.579 89.6666 32.4995 89.6666C33.42 89.6666 34.1662 88.9204 34.1662 88C34.1662 87.0795 33.42 86.3333 32.4995 86.3333Z" fill="#00B1E9"/>
<path d="M76.1654 71.6667C75.245 71.6667 74.4988 72.4129 74.4988 73.3333C74.4988 74.2538 75.245 75 76.1654 75C77.0859 75 77.8321 74.2538 77.8321 73.3333C77.8321 72.4129 77.0859 71.6667 76.1654 71.6667Z" fill="#00B1E9"/>
<path d="M32.4995 71.6667C31.579 71.6667 30.8328 72.4129 30.8328 73.3333C30.8328 74.2538 31.579 75 32.4995 75C33.42 75 34.1662 74.2538 34.1662 73.3333C34.1662 72.4129 33.42 71.6667 32.4995 71.6667Z" fill="#00B1E9"/>
<path d="M76.1654 43.3333C75.245 43.3333 74.4988 44.0795 74.4988 45C74.4988 45.9204 75.245 46.6665 76.1654 46.6665C77.0859 46.6665 77.8321 45.9204 77.8321 45C77.8321 44.0795 77.0859 43.3333 76.1654 43.3333Z" fill="#00B1E9"/>
<path d="M32.4995 43.3333C31.579 43.3333 30.8328 44.0795 30.8328 45C30.8328 45.9204 31.579 46.6665 32.4995 46.6665C33.42 46.6665 34.1662 45.9204 34.1662 45C34.1662 44.0795 33.42 43.3333 32.4995 43.3333Z" fill="#00B1E9"/>
<path d="M76.1654 14.3333C75.245 14.3333 74.4988 15.0795 74.4988 16C74.4988 16.9204 75.245 17.6666 76.1654 17.6666C77.0859 17.6666 77.8321 16.9204 77.8321 16C77.8321 15.0795 77.0859 14.3333 76.1654 14.3333Z" fill="#00B1E9"/>
<path d="M32.4995 14.3333C31.579 14.3333 30.8328 15.0795 30.8328 16C30.8328 16.9204 31.579 17.6666 32.4995 17.6666C33.42 17.6666 34.1662 16.9204 34.1662 16C34.1662 15.0795 33.42 14.3333 32.4995 14.3333Z" fill="#00B1E9"/>
<path d="M76.1654 57.3333C75.245 57.3333 74.4988 58.0795 74.4988 59C74.4988 59.9204 75.245 60.6665 76.1654 60.6665C77.0859 60.6665 77.8321 59.9204 77.8321 59C77.8321 58.0795 77.0859 57.3333 76.1654 57.3333Z" fill="#00B1E9"/>
<path d="M32.4995 57.3333C31.579 57.3333 30.8328 58.0795 30.8328 59C30.8328 59.9204 31.579 60.6665 32.4995 60.6665C33.42 60.6665 34.1662 59.9204 34.1662 59C34.1662 58.0795 33.42 57.3333 32.4995 57.3333Z" fill="#00B1E9"/>
<path d="M76.1654 28.9998C75.245 28.9998 74.4988 29.746 74.4988 30.6665C74.4988 31.587 75.245 32.3332 76.1654 32.3332C77.0859 32.3332 77.8321 31.587 77.8321 30.6665C77.8321 29.746 77.0859 28.9998 76.1654 28.9998Z" fill="#00B1E9"/>
<path d="M32.4995 28.9998C31.579 28.9998 30.8328 29.746 30.8328 30.6665C30.8328 31.587 31.579 32.3332 32.4995 32.3332C33.42 32.3332 34.1662 31.587 34.1662 30.6665C34.1662 29.746 33.42 28.9998 32.4995 28.9998Z" fill="#00B1E9"/>
<path d="M76.1654 0C75.245 0 74.4988 0.746194 74.4988 1.66667C74.4988 2.58715 75.245 3.33334 76.1654 3.33334C77.0859 3.33334 77.8321 2.58715 77.8321 1.66667C77.8321 0.746194 77.0859 0 76.1654 0Z" fill="#00B1E9"/>
<path d="M32.4995 0C31.579 0 30.8328 0.746194 30.8328 1.66667C30.8328 2.58715 31.579 3.33334 32.4995 3.33334C33.42 3.33334 34.1662 2.58715 34.1662 1.66667C34.1662 0.746194 33.42 0 32.4995 0Z" fill="#00B1E9"/>
<path d="M61.4995 130.333C60.579 130.333 59.8328 131.079 59.8328 132C59.8328 132.92 60.579 133.667 61.4995 133.667C62.42 133.667 63.1662 132.92 63.1662 132C63.1662 131.079 62.42 130.333 61.4995 130.333Z" fill="#00B1E9"/>
<path d="M17.8333 130.333C16.9129 130.333 16.1667 131.079 16.1667 132C16.1667 132.92 16.9129 133.667 17.8333 133.667C18.7538 133.667 19.5 132.92 19.5 132C19.5 131.079 18.7538 130.333 17.8333 130.333Z" fill="#00B1E9"/>
<path d="M61.4995 115.666C60.579 115.666 59.8328 116.412 59.8328 117.333C59.8328 118.253 60.579 119 61.4995 119C62.42 119 63.1662 118.253 63.1662 117.333C63.1662 116.412 62.42 115.666 61.4995 115.666Z" fill="#00B1E9"/>
<path d="M17.8333 115.666C16.9129 115.666 16.1667 116.412 16.1667 117.333C16.1667 118.253 16.9129 119 17.8333 119C18.7538 119 19.5 118.253 19.5 117.333C19.5 116.412 18.7538 115.666 17.8333 115.666Z" fill="#00B1E9"/>
<path d="M61.4995 101C60.579 101 59.8328 101.746 59.8328 102.667C59.8328 103.587 60.579 104.334 61.4995 104.334C62.42 104.334 63.1662 103.587 63.1662 102.667C63.1662 101.746 62.42 101 61.4995 101Z" fill="#00B1E9"/>
<path d="M17.8333 101C16.9129 101 16.1667 101.746 16.1667 102.667C16.1667 103.587 16.9129 104.334 17.8333 104.334C18.7538 104.334 19.5 103.587 19.5 102.667C19.5 101.746 18.7538 101 17.8333 101Z" fill="#00B1E9"/>
<path d="M61.4995 86.3333C60.579 86.3333 59.8328 87.0795 59.8328 88C59.8328 88.9204 60.579 89.6666 61.4995 89.6666C62.42 89.6666 63.1662 88.9204 63.1662 88C63.1662 87.0795 62.42 86.3333 61.4995 86.3333Z" fill="#00B1E9"/>
<path d="M17.8333 86.3333C16.9129 86.3333 16.1667 87.0795 16.1667 88C16.1667 88.9204 16.9129 89.6666 17.8333 89.6666C18.7538 89.6666 19.5 88.9204 19.5 88C19.5 87.0795 18.7538 86.3333 17.8333 86.3333Z" fill="#00B1E9"/>
<path d="M61.4995 71.6667C60.579 71.6667 59.8328 72.4129 59.8328 73.3333C59.8328 74.2538 60.579 75 61.4995 75C62.42 75 63.1662 74.2538 63.1662 73.3333C63.1662 72.4129 62.42 71.6667 61.4995 71.6667Z" fill="#00B1E9"/>
<path d="M17.8333 71.6667C16.9129 71.6667 16.1667 72.4129 16.1667 73.3333C16.1667 74.2538 16.9129 75 17.8333 75C18.7538 75 19.5 74.2538 19.5 73.3333C19.5 72.4129 18.7538 71.6667 17.8333 71.6667Z" fill="#00B1E9"/>
<path d="M61.4995 43.3333C60.579 43.3333 59.8328 44.0795 59.8328 45C59.8328 45.9204 60.579 46.6665 61.4995 46.6665C62.42 46.6665 63.1662 45.9204 63.1662 45C63.1662 44.0795 62.42 43.3333 61.4995 43.3333Z" fill="#00B1E9"/>
<path d="M17.8333 43.3333C16.9129 43.3333 16.1667 44.0795 16.1667 45C16.1667 45.9204 16.9129 46.6665 17.8333 46.6665C18.7538 46.6665 19.5 45.9204 19.5 45C19.5 44.0795 18.7538 43.3333 17.8333 43.3333Z" fill="#00B1E9"/>
<path d="M61.4995 14.3333C60.579 14.3333 59.8328 15.0795 59.8328 16C59.8328 16.9204 60.579 17.6666 61.4995 17.6666C62.42 17.6666 63.1662 16.9204 63.1662 16C63.1662 15.0795 62.42 14.3333 61.4995 14.3333Z" fill="#00B1E9"/>
<path d="M17.8333 14.3333C16.9129 14.3333 16.1667 15.0795 16.1667 16C16.1667 16.9204 16.9129 17.6666 17.8333 17.6666C18.7538 17.6666 19.5 16.9204 19.5 16C19.5 15.0795 18.7538 14.3333 17.8333 14.3333Z" fill="#00B1E9"/>
<path d="M61.4995 57.3333C60.579 57.3333 59.8328 58.0795 59.8328 59C59.8328 59.9204 60.579 60.6665 61.4995 60.6665C62.42 60.6665 63.1662 59.9204 63.1662 59C63.1662 58.0795 62.42 57.3333 61.4995 57.3333Z" fill="#00B1E9"/>
<path d="M17.8333 57.3333C16.9129 57.3333 16.1667 58.0795 16.1667 59C16.1667 59.9204 16.9129 60.6665 17.8333 60.6665C18.7538 60.6665 19.5 59.9204 19.5 59C19.5 58.0795 18.7538 57.3333 17.8333 57.3333Z" fill="#00B1E9"/>
<path d="M61.4995 28.9998C60.579 28.9998 59.8328 29.746 59.8328 30.6665C59.8328 31.587 60.579 32.3332 61.4995 32.3332C62.42 32.3332 63.1662 31.587 63.1662 30.6665C63.1662 29.746 62.42 28.9998 61.4995 28.9998Z" fill="#00B1E9"/>
<path d="M17.8333 28.9998C16.9129 28.9998 16.1667 29.746 16.1667 30.6665C16.1667 31.587 16.9129 32.3332 17.8333 32.3332C18.7538 32.3332 19.5 31.587 19.5 30.6665C19.5 29.746 18.7538 28.9998 17.8333 28.9998Z" fill="#00B1E9"/>
<path d="M61.4995 0C60.579 0 59.8328 0.746194 59.8328 1.66667C59.8328 2.58715 60.579 3.33334 61.4995 3.33334C62.42 3.33334 63.1662 2.58715 63.1662 1.66667C63.1662 0.746194 62.42 0 61.4995 0Z" fill="#00B1E9"/>
<path d="M17.8333 0C16.9129 0 16.1667 0.746194 16.1667 1.66667C16.1667 2.58715 16.9129 3.33334 17.8333 3.33334C18.7538 3.33334 19.5 2.58715 19.5 1.66667C19.5 0.746194 18.7538 0 17.8333 0Z" fill="#00B1E9"/>
<path d="M46.8334 130.333C45.913 130.333 45.1667 131.079 45.1667 132C45.1667 132.92 45.913 133.667 46.8334 133.667C47.7539 133.667 48.5 132.92 48.5 132C48.5 131.079 47.7539 130.333 46.8334 130.333Z" fill="#00B1E9"/>
<path d="M3.16545 130.333C2.24497 130.333 1.49878 131.079 1.49878 132C1.49878 132.92 2.24497 133.667 3.16545 133.667C4.08593 133.667 4.83212 132.92 4.83212 132C4.83212 131.079 4.08593 130.333 3.16545 130.333Z" fill="#00B1E9"/>
<path d="M46.8334 115.666C45.913 115.666 45.1667 116.412 45.1667 117.333C45.1667 118.253 45.913 119 46.8334 119C47.7539 119 48.5 118.253 48.5 117.333C48.5 116.412 47.7539 115.666 46.8334 115.666Z" fill="#00B1E9"/>
<path d="M3.16545 115.666C2.24497 115.666 1.49878 116.412 1.49878 117.333C1.49878 118.253 2.24497 119 3.16545 119C4.08593 119 4.83212 118.253 4.83212 117.333C4.83212 116.412 4.08593 115.666 3.16545 115.666Z" fill="#00B1E9"/>
<path d="M46.8334 101C45.913 101 45.1667 101.746 45.1667 102.667C45.1667 103.587 45.913 104.334 46.8334 104.334C47.7539 104.334 48.5 103.587 48.5 102.667C48.5 101.746 47.7539 101 46.8334 101Z" fill="#00B1E9"/>
<path d="M3.16545 101C2.24497 101 1.49878 101.746 1.49878 102.667C1.49878 103.587 2.24497 104.334 3.16545 104.334C4.08593 104.334 4.83212 103.587 4.83212 102.667C4.83212 101.746 4.08593 101 3.16545 101Z" fill="#00B1E9"/>
<path d="M46.8334 86.3333C45.913 86.3333 45.1667 87.0795 45.1667 88C45.1667 88.9204 45.913 89.6666 46.8334 89.6666C47.7539 89.6666 48.5 88.9204 48.5 88C48.5 87.0795 47.7539 86.3333 46.8334 86.3333Z" fill="#00B1E9"/>
<path d="M3.16545 86.3333C2.24497 86.3333 1.49878 87.0795 1.49878 88C1.49878 88.9204 2.24497 89.6666 3.16545 89.6666C4.08593 89.6666 4.83212 88.9204 4.83212 88C4.83212 87.0795 4.08593 86.3333 3.16545 86.3333Z" fill="#00B1E9"/>
<path d="M46.8334 71.6667C45.913 71.6667 45.1667 72.4129 45.1667 73.3333C45.1667 74.2538 45.913 75 46.8334 75C47.7539 75 48.5 74.2538 48.5 73.3333C48.5 72.4129 47.7539 71.6667 46.8334 71.6667Z" fill="#00B1E9"/>
<path d="M3.16545 71.6667C2.24497 71.6667 1.49878 72.4129 1.49878 73.3333C1.49878 74.2538 2.24497 75 3.16545 75C4.08593 75 4.83212 74.2538 4.83212 73.3333C4.83212 72.4129 4.08593 71.6667 3.16545 71.6667Z" fill="#00B1E9"/>
<path d="M46.8334 43.3333C45.913 43.3333 45.1667 44.0795 45.1667 45C45.1667 45.9204 45.913 46.6665 46.8334 46.6665C47.7539 46.6665 48.5 45.9204 48.5 45C48.5 44.0795 47.7539 43.3333 46.8334 43.3333Z" fill="#00B1E9"/>
<path d="M3.16545 43.3333C2.24497 43.3333 1.49878 44.0795 1.49878 45C1.49878 45.9204 2.24497 46.6665 3.16545 46.6665C4.08593 46.6665 4.83212 45.9204 4.83212 45C4.83212 44.0795 4.08593 43.3333 3.16545 43.3333Z" fill="#00B1E9"/>
<path d="M46.8334 14.3333C45.913 14.3333 45.1667 15.0795 45.1667 16C45.1667 16.9204 45.913 17.6666 46.8334 17.6666C47.7539 17.6666 48.5 16.9204 48.5 16C48.5 15.0795 47.7539 14.3333 46.8334 14.3333Z" fill="#00B1E9"/>
<path d="M3.16545 14.3333C2.24497 14.3333 1.49878 15.0795 1.49878 16C1.49878 16.9204 2.24497 17.6666 3.16545 17.6666C4.08593 17.6666 4.83212 16.9204 4.83212 16C4.83212 15.0795 4.08593 14.3333 3.16545 14.3333Z" fill="#00B1E9"/>
<path d="M46.8334 57.3333C45.913 57.3333 45.1667 58.0795 45.1667 59C45.1667 59.9204 45.913 60.6665 46.8334 60.6665C47.7539 60.6665 48.5 59.9204 48.5 59C48.5 58.0795 47.7539 57.3333 46.8334 57.3333Z" fill="#00B1E9"/>
<path d="M3.16545 57.3333C2.24497 57.3333 1.49878 58.0795 1.49878 59C1.49878 59.9204 2.24497 60.6665 3.16545 60.6665C4.08593 60.6665 4.83212 59.9204 4.83212 59C4.83212 58.0795 4.08593 57.3333 3.16545 57.3333Z" fill="#00B1E9"/>
<path d="M46.8334 28.9998C45.913 28.9998 45.1667 29.746 45.1667 30.6665C45.1667 31.587 45.913 32.3332 46.8334 32.3332C47.7539 32.3332 48.5 31.587 48.5 30.6665C48.5 29.746 47.7539 28.9998 46.8334 28.9998Z" fill="#00B1E9"/>
<path d="M3.16545 28.9998C2.24497 28.9998 1.49878 29.746 1.49878 30.6665C1.49878 31.587 2.24497 32.3332 3.16545 32.3332C4.08593 32.3332 4.83212 31.587 4.83212 30.6665C4.83212 29.746 4.08593 28.9998 3.16545 28.9998Z" fill="#00B1E9"/>
<path d="M46.8334 0C45.913 0 45.1667 0.746194 45.1667 1.66667C45.1667 2.58715 45.913 3.33334 46.8334 3.33334C47.7539 3.33334 48.5 2.58715 48.5 1.66667C48.5 0.746194 47.7539 0 46.8334 0Z" fill="#00B1E9"/>
<path d="M3.16545 0C2.24497 0 1.49878 0.746194 1.49878 1.66667C1.49878 2.58715 2.24497 3.33334 3.16545 3.33334C4.08593 3.33334 4.83212 2.58715 4.83212 1.66667C4.83212 0.746194 4.08593 0 3.16545 0Z" fill="#00B1E9"/>
</g>
</g>
<defs>
<clipPath id="clip0_1015_919">
<rect width="107" height="134" fill="white" transform="translate(0.5)"/>
</clipPath>
</defs>
</svg>
